<?xml version="1.0" encoding="iso-8859-1"?>
<!-- Generator: Adobe Illustrator 19.0.0, SVG Export Plug-In . SVG Version: 6.00 Build 0)  -->
<svg version="1.1" id="Layer_1" xmlns="http://www.w3.org/2000/svg" xmlns:xlink="http://www.w3.org/1999/xlink" x="0px" y="0px"
	 viewBox="0 0 512.001 512.001" style="enable-background:new 0 0 512.001 512.001;" xml:space="preserve">
<g>
	<g>
		<path d="M432.547,110.863c-14.492-11.086-30.827-18.609-48.552-22.36c-4.259-0.901-8.444,1.821-9.347,6.082
			c-0.901,4.26,1.821,8.445,6.082,9.346c15.411,3.262,29.622,9.808,42.236,19.457c46.272,35.396,55.121,101.838,19.725,148.11
			c-0.659,0.861-1.332,1.714-2.017,2.555c-1.886-40.456-21.286-77.956-54.116-103.069c-32.829-25.112-74.096-34.023-113.64-25.254
			c0.634-0.882,1.279-1.754,1.939-2.616c19.729-25.792,49.69-40.9,82.199-41.452c4.354-0.074,7.824-3.664,7.75-8.017
			c-0.074-4.353-3.677-7.815-8.017-7.75c-10.28,0.174-20.336,1.623-29.989,4.239c5.907-2.879,12.046-5.337,18.396-7.282
			c38.084-11.662,78.527-5.021,110.956,18.218c3.49,2.502,8.609,1.593,11.069-1.916c1.761-2.513,1.424-5.385,0.801-8.217
			c-0.683-3.104-1.488-6.182-2.419-9.221c-9.029-29.491-29.003-53.699-56.241-68.167C382.125-0.92,350.883-3.913,321.39,5.115
			c-27.526,8.428-50.785,26.825-65.386,51.319c-14.685-24.721-37.714-42.843-65.397-51.319c-29.492-9.029-60.734-6.035-87.971,8.432
			C75.397,28.015,55.424,52.224,46.394,81.714c-0.873,2.849-1.636,5.731-2.288,8.637c-0.561,2.504-1.161,4.92-0.112,7.385
			c1.944,4.572,7.805,6.234,11.851,3.333c18.312-13.123,39.793-21.164,62.119-23.255c4.336-0.406,7.521-4.249,7.116-8.586
			c-0.407-4.337-4.267-7.529-8.586-7.115c-18.069,1.692-35.646,6.85-51.753,15.107c8.828-21.329,24.641-38.779,45.29-49.747
			c23.518-12.492,50.493-15.078,75.956-7.28c25.463,7.797,46.366,25.043,58.857,48.561c10.96,20.632,14.294,43.928,9.682,66.526
			c-17.717-32.38-47.117-56.486-83.11-67.507c-9.21-2.82-18.699-4.713-28.204-5.626c-4.342-0.424-8.186,2.76-8.604,7.094
			s2.76,8.186,7.094,8.603c8.453,0.813,16.896,2.498,25.096,5.008c6.629,2.03,13,4.57,19.086,7.561
			c-35.474-9.867-75.005-3.592-106.437,20.452c-53.175,40.678-63.344,117.037-22.666,170.215
			c5.255,6.871,11.254,13.191,17.829,18.786c5.303,4.513,13.642,0.101,12.955-6.788c-4.255-42.623,13.485-83.583,47.455-109.568
			c27.361-20.928,61.338-29.141,94.437-23.577l-18.284,42.505c-2.202,5.118,1.682,11,7.243,11h4.777l-18.724,39.177
			c-2.461,5.147,1.427,11.284,7.114,11.284h5.213l-12.792,44.609c-1.422,4.959,2.424,10.058,7.579,10.058h3.003l-13.998,48.814
			c-1.422,4.959,2.424,10.058,7.579,10.058h2.604l-13.658,53.233c-1.262,4.913,2.574,9.844,7.638,9.844h3.971l-15.048,61.735
			c-1.191,4.888,2.635,9.752,7.661,9.752h109.333c5.026,0,8.852-4.863,7.661-9.752l-15.048-61.735h3.971
			c5.063,0,8.898-4.932,7.638-9.844l-13.658-53.233h2.605c5.154,0,9.001-5.099,7.579-10.058l-13.998-48.814h3.002
			c5.154,0,9.001-5.099,7.579-10.058l-12.792-44.609h5.213c5.688,0,9.575-6.138,7.114-11.284l-18.724-39.177h4.777
			c5.56,0,9.445-5.882,7.243-11l-18.284-42.506c33.099-5.564,67.076,2.65,94.437,23.578c33.97,25.984,51.709,66.944,47.455,109.568
			c-0.688,6.89,7.651,11.3,12.955,6.788c6.575-5.594,12.573-11.914,17.829-18.786C495.894,227.901,485.725,151.542,432.547,110.863z
			 M326.01,20.193c25.459-7.797,52.436-5.212,75.956,7.28c20.634,10.96,36.438,28.393,45.271,49.699
			c-32.809-16.909-70.664-20.421-106.658-9.401c-26.873,8.228-50.595,24.202-68.279,45.695c-0.224-13.438-2.821-26.764-7.742-39.461
			C276.424,48.131,298.805,28.523,326.01,20.193z M253.192,166.384c1.775,0.676,3.842,0.676,5.618,0
			c2.698-1.029,5.415-1.95,8.146-2.783l14.653,34.066h-51.217l14.654-34.066C247.776,164.434,250.494,165.355,253.192,166.384z
			 M125.441,170.983c-32.829,25.113-52.23,62.612-54.116,103.069c-0.685-0.841-1.358-1.693-2.017-2.555
			c-35.395-46.272-26.546-112.714,19.725-148.11c19.121-14.625,41.677-21.695,64.07-21.695c31.801,0,63.269,14.269,84.038,41.42
			c0.659,0.861,1.305,1.734,1.938,2.616C199.542,136.961,158.269,145.871,125.441,170.983z M300.63,496.23h-89.259l13.582-55.718
			h62.096L300.63,496.23z M297.088,424.743h-82.174l12.138-47.308h57.898L297.088,424.743z M218.63,361.667l12.36-43.103h50.02
			l12.36,43.103H218.63z M289.953,302.795h-67.906l11.154-38.897H278.8L289.953,302.795z M287.909,248.128h-63.818l16.58-34.692
			h30.658L287.909,248.128z"/>
	</g>
</g>
<g>
</g>
<g>
</g>
<g>
</g>
<g>
</g>
<g>
</g>
<g>
</g>
<g>
</g>
<g>
</g>
<g>
</g>
<g>
</g>
<g>
</g>
<g>
</g>
<g>
</g>
<g>
</g>
<g>
</g>
</svg>
